<?xml version="1.0" standalone="no"?>
<!DOCTYPE svg PUBLIC "-//W3C//DTD SVG 20010904//EN"
 "http://www.w3.org/TR/2001/REC-SVG-20010904/DTD/svg10.dtd">
<svg version="1.0" xmlns="http://www.w3.org/2000/svg"
 width="260.000000pt" height="260.000000pt" viewBox="0 0 260.000000 260.000000"
 preserveAspectRatio="xMidYMid meet">
<metadata>
Created by potrace 1.11, written by Peter Selinger 2001-2013
</metadata>
<g transform="translate(0.000000,260.000000) scale(0.100000,-0.100000)"
fill="#000000" stroke="none">
<path d="M1425 1838 c-301 -69 -514 -254 -605 -526 -30 -92 -35 -131 -34 -277
0 -104 5 -146 23 -210 80 -283 319 -505 604 -560 100 -20 271 -13 365 14 267
77 473 288 548 561 25 91 25 329 0 419 -58 212 -196 391 -376 489 -67 37 -149
70 -193 77 -17 4 -52 11 -76 16 -52 12 -198 10 -256 -3z"/>
</g>
</svg>
